<svg width="268" height="367" fill="none" xmlns="http://www.w3.org/2000/svg">
    <path fill-rule="evenodd" clip-rule="evenodd" d="M71.355.979C55.269 4.397 43.207 18.515 42.216 35.085c-1.024 17.11 7.022 30.142 24.433 39.577l7.681 4.162-21.415.385c-19.433.35-21.95.597-27.2 2.673-7.152 2.829-16.267 11.042-20.13 18.139C.699 108.999.024 113.535.016 137.5c-.008 20.226.152 22.264 1.985 25.27 1.097 1.799 3.233 3.803 4.747 4.453 1.513.65 2.89 1.267 3.059 1.37.169.104.328 17.744.353 39.202.041 35.424.224 39.689 1.996 46.359C18.548 278.22 38.872 293 65.571 293h7.203l.389 6.88c.309 5.47 1.004 7.878 3.389 11.75 2.872 4.663 2.942 5.04 1.638 8.87-4.163 12.22 4.195 27.77 17.31 32.21 1.65.558 4.546 2.46 6.435 4.227 7.365 6.885 16.394 9.448 33.065 9.386 15.582-.058 22.235-2.047 31-9.271 2.475-2.04 5.995-4.224 7.822-4.854 12.105-4.171 19.582-18.593 16.332-31.499-1.033-4.102-.894-4.823 1.923-10.024 2.373-4.381 3.054-6.922 3.121-11.64l.085-6.035 7.609-.035c22.808-.105 41.234-10.969 49.532-29.203 5.141-11.3 5.539-15.47 5.435-57.061-.052-20.79.071-37.911.274-38.048.202-.136 1.606-.78 3.119-1.43 1.514-.65 3.65-2.654 4.747-4.453 1.826-2.995 1.994-5.055 1.997-24.471.002-11.683-.494-23.58-1.105-26.5-2.621-12.528-13.229-25.423-24.606-29.911-5.195-2.049-8.029-2.34-27.785-2.85-19.22-.496-21.621-.732-19-1.866 13.308-5.758 21.868-13.112 26.711-22.95 3.055-6.205 4.724-7.602 4.724-16.911 0-8.787-1.766-10.517-4.123-15.547-11.06-23.599-42.224-28.707-62.628-10.265-8.75 7.909-17.391 22.686-23.251 39.762-2.131 6.21-3.933 8.673-3.933 5.377 0-1.912-5.227-14.372-10.075-24.016-7.61-15.14-17.524-25.458-28.356-29.51C88.091.688 77.364-.297 71.355.979Zm2.765 18.174c-4.849 1.394-7.53 3.388-10.695 7.955-2.295 3.312-2.787 5.095-2.815 10.203-.037 6.972 1.475 10.563 6.568 15.59 5.326 5.257 17.065 10.4 29.822 13.064 3.025.632 7.419 1.573 9.764 2.092 2.346.519 5.842.943 7.769.943 3.317 0 3.47-.148 2.846-2.75-3.469-14.461-14.49-34.765-22.675-41.771-3.817-3.267-11.972-6.599-15.636-6.389-.862.05-3.089.528-4.948 1.063Zm108.598.284c-6.082 2.17-10.525 5.652-15.39 12.063-6.321 8.327-14.553 25.432-16.725 34.75-.578 2.481-.376 2.75 2.068 2.75 2.924 0 12.379-1.587 18.829-3.16 23.793-5.803 34.488-13.177 36.092-24.884 1.327-9.679-4.547-19.462-13.115-21.841-5.056-1.403-7.078-1.348-11.759.322ZM30.5 100.19c-4.946 2.599-7.165 5.027-9.879 10.81-1.84 3.922-2.155 6.72-2.449 21.769l-.338 17.268 23.229-.268 23.229-.269 1.435-4.925c7.787-26.714 42.836-37.841 64.522-20.483l3.749 3.001 4.599-3.511c18.151-13.86 45.174-9.062 58.365 10.362 2.132 3.139 4.522 7.923 5.311 10.632l1.435 4.924 23.227.269 23.228.268-.332-17.768c-.269-14.445-.658-18.424-2.08-21.269-2.588-5.181-5.742-8.454-10.461-10.856L233.08 98l-99.29.044c-98.918.044-99.305.052-103.29 2.146Zm70 34.691C88.556 138.004 82 146.508 82 158.877c0 11.759 1.071 13.308 27.96 40.433l23.979 24.19L157.54 200c27.115-26.999 28.46-28.913 28.46-40.507 0-8.55-2.082-13.899-7.31-18.783-5.068-4.733-8.609-6.078-16.19-6.147-8.397-.076-12.738 2.054-19.26 9.451-6.601 7.487-11.491 7.583-17.567.344-6.705-7.989-16.608-11.717-25.173-9.477ZM29 208.439c0 38.092.119 40.803 2.008 45.853 2.474 6.612 9.036 13.659 16.178 17.373l5.314 2.763 36.25.388 36.25.389v-35.33l-25.113-25.187c-26.116-26.194-30.592-31.585-33.808-40.723l-1.924-5.465-17.577-.273L29 167.954v40.485Zm174.689-39.795c-.379.379-.689 1.526-.689 2.548s-1.629 5.109-3.621 9.083c-3.202 6.389-6.673 10.292-29.995 33.725l-26.374 26.5-.005 17.336-.005 17.335 36.25-.344 36.25-.344 5.852-2.954c6.222-3.14 12.351-9.275 15.142-15.158 2.941-6.197 3.544-15.856 3.271-52.371l-.265-35.5-17.561-.272c-9.659-.15-17.871.037-18.25.416ZM91.211 294.189c-1.834 1.834-1.45 7.294.7 9.95l1.911 2.361 39.412.283c38.998.28 39.442.26 42.14-1.862 2.376-1.869 2.688-2.742 2.426-6.783l-.3-4.638-42.539-.261c-32.253-.197-42.833.033-43.75.95Zm4.039 30.473c-2.362.953-1.405 6.336 1.673 9.415L99.846 337h68.001l2.958-2.489c1.627-1.369 3.179-3.644 3.448-5.056 1.041-5.444.907-5.462-40.074-5.376-20.724.043-38.241.306-38.929.583Z" fill="#000"/>
</svg>
